<svg xmlns="http://www.w3.org/2000/svg" viewBox="0 0 24 24">
  <path d="M7.6 16V9.6H6.1V7.9h3.6V16h-2zm9.8-6c0 .7-.4 1.3-1 1.7a2.2 2.2 0 011.4 2c0 1.5-1.3 2.4-3.3 2.4s-3.3-.9-3.3-2.3c0-1 .6-1.7 1.5-2.1a2 2 0 01-1-1.7c0-1.3 1-2.1 2.8-2.1 1.8 0 2.9.8 2.9 2.1zm-4.3 3.6c0 .6.5 1 1.4 1 .9 0 1.4-.3 1.4-1s-.5-1-1.4-1c-.9 0-1.4.3-1.4 1zm.2-3.5c0 .6.5 1 1.2 1 .8 0 1.2-.4 1.2-1s-.4-.9-1.2-.9c-.7 0-1.2.3-1.2 1zm8-1.2A9.8 9.8 0 0112 21.7 9.8 9.8 0 012.2 12a9.8 9.8 0 0113-9.3V.6A11.9 11.9 0 00.1 12c0 6.5 5.3 11.8 11.8 11.8a11.9 11.9 0 0011.4-15h-2.2zm-.7-5.6V1.1H19v2.2h-2.3V5H19v2.2h1.6V5H23V3.3z"/>
</svg>