<svg xmlns="http://www.w3.org/2000/svg" viewBox="0 0 24 24">
  <path d="M12 0A12 12 0 000 12a12 12 0 0012 12 12 12 0 0012-12A12 12 0 0012 0zm1 4.2a.39.39 0 01.1.01l3.19.71a1.26 1.26 0 11-.14.7l-2.88-.64-.97 4.2a9.06 9.06 0 015.22 1.73 1.85 1.85 0 012.84.23 1.8 1.8 0 01.1.17 1.92 1.92 0 01-.87 2.57 4.48 4.48 0 01-1.92 4.2 9.5 9.5 0 01-5.67 1.7 9.5 9.5 0 01-5.67-1.7 4.48 4.48 0 01-1.92-4.2 1.8 1.8 0 01-.18-.1 1.92 1.92 0 01-.59-2.64 1.98 1.98 0 01.22-.25 1.86 1.86 0 012.62.02 9.07 9.07 0 015.09-1.72l1.08-4.68a.39.39 0 01.36-.3zm-3.97 8.01a1.27 1.27 0 00-1.27 1.28 1.27 1.27 0 101.27-1.28zm5.94 0a1.27 1.27 0 00-1.27 1.28 1.27 1.27 0 101.27-1.28zM9.01 16.5a.3.3 0 00-.22.49 5.44 5.44 0 006.42 0 .3.3 0 00-.3-.48 4.96 4.96 0 01-5.81 0 .3.3 0 00-.09-.01z"/>
</svg>