<svg xmlns="http://www.w3.org/2000/svg" data-name="Reddit logo" viewBox="0 0 24 24">
  <path fill="#ff4500" d="M12.9 1.9a.5.5 0 01.7-.4l4.2 1a1.7 1.7 0 11-.2 1l-3.9-1-1.3 5.7a12.3 12.3 0 017.1 2.4 2.5 2.5 0 013.8.3 2.4 2.4 0 01.2.2 2.6 2.6 0 01-1.2 3.5 6 6 0 01-2.6 5.6 12.9 12.9 0 01-7.7 2.4 12.9 12.9 0 01-7.6-2.4 6 6 0 01-2.6-5.6 2.4 2.4 0 01-.3-.2A2.6 2.6 0 01.7 11a2.7 2.7 0 01.3-.4 2.5 2.5 0 013.5 0 12.3 12.3 0 017-2.3zM14.3 14a1.7 1.7 0 101.7-1.7 1.7 1.7 0 00-1.7 1.7zm2 4.8a.4.4 0 00-.4-.7 6.7 6.7 0 01-7.8 0 .4.4 0 00-.5.7 7.4 7.4 0 008.7 0zM6.3 14A1.7 1.7 0 108 12.3 1.7 1.7 0 006.2 14z"/>
</svg>